<svg id="Layer_1" data-name="Layer 1" xmlns="http://www.w3.org/2000/svg" xmlns:xlink="http://www.w3.org/1999/xlink" viewBox="0 0 511.68 513.46"><defs><style>.cls-1{fill:none;}.cls-2{clip-path:url(#clip-path);}.cls-3{fill:#8a3f39;}.cls-4{fill:#fae5c0;}</style><clipPath id="clip-path"><circle class="cls-1" cx="-346.23" cy="256.73" r="255.84"/></clipPath></defs><g class="cls-2"><path class="cls-3" d="M165.76,205.89v1a42.07,42.07,0,0,0-.68,5.32q-.06,44.49,0,89c0,6.51,0,6.52-6.5,6.52H-288.79c-6.68,0-6.68,0-6.68,6.76q0,96,0,191.94c0,2.16.15,4.32.23,6.48h-102V307.71h-455c-2,0-4,.12-6,.18v-102l118.45,0q168.19,0,336.37.09c4.81,0,6.28-1.3,6.17-6.16-.31-14.32-.11-28.65-.1-43q0-78,.11-155.93h102c-.08,2.16-.23,4.32-.23,6.48V198.28c0,7.56,0,7.58,7.44,7.58Z"/><path class="cls-3" d="M-261.23,512.89q0-80,.11-159.9v-5.64c8.28,4.12,15.84,7.86,23.37,11.63L68.5,512.09c.44.22.84.53,1.27.8Z"/><path class="cls-3" d="M68.77.89C58.61,6.16,48.52,11.56,38.29,16.68q-144.87,72.54-289.8,145c-2.94,1.47-5.92,2.84-9.72,4.65V.89Z"/><path class="cls-3" d="M164.76.89c-22,11.09-43.94,22.23-66,33.25Q-34.7,101-168.21,167.81a32.06,32.06,0,0,1-15.28,3.59c-14.95-.2-29.92-.07-45.3-1.07,1.43-.82,2.82-1.71,4.29-2.44Q-119.17,115.08-13.81,62.3,45.56,32.56,104.94,2.84A24.42,24.42,0,0,0,107.76.89Z"/><path class="cls-3" d="M-77.83,342.38H164.5V464.73L-78.22,343.36Z"/><path class="cls-3" d="M-173.16,342.19c17.45,0,34.89-.08,52.34.1,2,0,4.09,1.26,6,2.21q76.62,38.28,153.2,76.63,61,30.5,122,60.9c3.58,1.78,4.71,3.9,4.57,7.69-.26,7.24-.07,14.5-.07,22.85L-173.44,343.19Z"/><path class="cls-3" d="M165,48.75v6c0,36.82-.1,73.64.09,110.46,0,5-1.16,6.41-6.35,6.4q-115.69-.27-231.4-.11h-5.27c-.08-.38-.16-.75-.25-1.12C2.53,130,83.23,89.63,165,48.75Z"/></g><ellipse class="cls-4" cx="255.84" cy="256.73" rx="255.84" ry="256.73"/><path class="cls-3" d="M153.7,232.42c4.65.42,9.2.79,13.74,1.25,10.52,1.06,21,1.73,31.52-.16,8.66-1.56,16.74-4.45,23.41-10.41a39.33,39.33,0,0,0,9.55-12.87,9.83,9.83,0,0,0,.1-8.9c-4.45-8.6-10.32-15.77-20.08-18.64-6.56-1.93-13.21-1.54-19.82-.35-13.29,2.41-25.64,7.53-37.79,13.18-6.91,3.21-13.68,6.75-20.51,10.15l-1.75.86-26.44-44.31c13.25-11.42,27.75-20.37,44.19-26.05,16.71-5.77,33.78-9,51.55-8.64,22.77.47,39.08,11.18,50,30.74A66,66,0,0,1,260,190.79c0,7.92-2,15.43-4.82,22.74A112.9,112.9,0,0,1,238.67,243a42,42,0,0,1-11.55,10.42c-2.59,1.52-5.08,3.2-7.59,4.79.06.16.06.24.09.26C227.29,261.9,234.71,266,243,268c10.34,2.57,19.21-.25,26.8-7.55,6.55-6.31,11.24-14,15.59-21.84,5-9,9.81-18.16,15-27.06A95.49,95.49,0,0,1,317,190.29c9.14-8.67,20.13-13.19,32.52-14.55a118,118,0,0,1,26.57-.05,37,37,0,0,1,14.11,4.74c14.66,8.32,25.76,20.13,34,34.73s13.09,30.44,15.47,47a183.43,183.43,0,0,1-3.92,71.07c-3.74,15-9.62,29.08-19.16,41.4-10.79,13.93-24.57,23.26-42.12,26.2-15,2.52-29.76,1.69-43.52-5.57C319.08,389,311.11,379,305.41,367.07c-4.74-9.87-7.12-20.47-8.47-31.29a90.82,90.82,0,0,1-.33-21.42A40.47,40.47,0,0,1,301,300.12c.23-.45.56-.85,1.13-1.7a17.34,17.34,0,0,1,.51,2.76c0,6.55,2.63,12.22,5.91,17.65a59.31,59.31,0,0,0,12,14.3c6.55,5.67,14.34,8.38,22.81,9.16,14.72,1.37,28-3,40.12-11,13.69-9,23.74-21.09,29.44-36.55,3.21-8.72,4.2-17.88,4.35-27.11a107,107,0,0,0-4.68-34.37,50.65,50.65,0,0,0-5.8-12.54c-2.94-4.5-6.89-7.57-12.29-8.31A116.07,116.07,0,0,0,379.74,211c-7.27-.05-13.36,3.28-18.71,8-7.2,6.33-12.48,14.18-17.59,22.18S333.32,257.42,328,265.33a87.64,87.64,0,0,1-14.47,16.44,25.91,25.91,0,0,1-17.11,6.92c-10.6.23-21.2.26-31.79.37h-2.16c.31.73.55,1.31.8,1.88,3.09,7.38,6.65,14.6,9.16,22.17,4.13,12.45,4.79,25.41,4,38.44a107.92,107.92,0,0,1-3.81,22.86,74.7,74.7,0,0,1-14.29,26.86,101.44,101.44,0,0,1-25.41,22.67c-7.55,4.7-15.84,7.07-24.59,8.11a137.1,137.1,0,0,1-34.11-.26,84,84,0,0,1-26.29-8.4C123,411.1,104.63,392.05,91.48,367.82a171.37,171.37,0,0,1-19.3-61,204.09,204.09,0,0,1-1.87-34,58.19,58.19,0,0,1,1.06-8c.12-.67.88-1.24,1.35-1.85.5.52,1.23.95,1.47,1.58,2.2,5.87,4.7,11.67,6.37,17.7,4.51,16.3,9.74,32.32,17.58,47.35,3,5.75,6.44,11.3,10,16.73,6.66,10.21,16.17,17,27.25,21.67a114.94,114.94,0,0,0,59.21,8.33c10.57-1.26,20.69-4.18,29.3-10.82,12.29-9.49,17.84-22.11,17-37.58a49.53,49.53,0,0,0-3.79-15.93c-4.76-11.67-13.65-18.13-25.81-20.49-9-1.75-18-1.41-27-.5a6.92,6.92,0,0,0-1.59.19c-2.52.89-3.86-.47-5.27-2.33-11.53-15.23-18.8-32.34-22.81-50.93-.36-1.68-.64-3.38-1-5.07A2.45,2.45,0,0,1,153.7,232.42Z"/><path class="cls-3" d="M232.48,78.55c2.35,3.88,4.3,7.48,6.61,10.82A104.28,104.28,0,0,0,272.69,120c7.84,4.59,16.71,6.75,25.8,7.59,16.92,1.57,32.31-3.21,46.93-11.26,8.84-4.88,16.77-11.07,24.74-17.2,2.67-2.06,5.61-3.78,8.43-5.65,1.16-.77,1.85-.47,2.75.68q6,7.59,12.26,15c4,4.77,8.08,9.52,11,15.11.76,1.48,1.36,3,2.08,4.54a3.5,3.5,0,0,1-.53,4.19,61,61,0,0,1-6.48,6.48,136.75,136.75,0,0,1-39.25,22.23c-7.69,2.74-15.88,4.21-23.93,5.79a107,107,0,0,1-26,1.8A74.82,74.82,0,0,1,265.18,152c-9.83-8.13-18.37-17.5-24.45-28.7A89.25,89.25,0,0,1,230.32,87a23.06,23.06,0,0,1,.5-5.91C231,80.19,231.87,79.43,232.48,78.55Z"/><path class="cls-3" d="M302,50.6l37.36,34.59c-1.82,1.7-3.64,3.22-5.23,4.94C328.72,96,323.41,101.91,318,107.76a70.33,70.33,0,0,1-13.92,11.95,2,2,0,0,1-2.66,0C293.86,114.1,285.89,109,279,102.58a44.62,44.62,0,0,1-10.28-13.34A1.73,1.73,0,0,1,269,87q16.1-17.74,32.12-35.56C301.36,51.16,301.65,50.92,302,50.6Z"/></svg>