<svg id="Layer_1" data-name="Layer 1" xmlns="http://www.w3.org/2000/svg" viewBox="0 0 512.22 514"><defs><style>.cls-1{fill:#fae5c0;}.cls-2{fill:#8a3f39;}</style></defs><ellipse class="cls-1" cx="256.11" cy="257" rx="256.11" ry="257"/><path class="cls-2" d="M254.72,487.55A229.48,229.48,0,0,1,24.66,257.84C24.47,129.92,127.7,26.23,255,26.44s231,104.42,230.5,231.73C485.07,385.11,382,487.55,254.72,487.55ZM132.78,106.1c-15.21-.57-28.31,14-29.28,24.83-.41,4.66-4.37,11.42-8.35,12.91-13.92,5.24-20.8,17.22-18,33,.64,3.55-1.36,9.32-4.14,11.44-15.29,11.67-17.31,19.54-9.84,38.13,1.3,3.22-.17,9.2-2.58,12-10.55,12.25-10.59,25.71-.36,37.59,2.54,3,3.75,9.65,2.19,13.09-7,15.35-3.83,27.05,10.26,37,2.89,2,5.18,7.8,4.62,11.35-2.67,17,3.82,28.33,18.9,33.66,3.48,1.23,7.42,6.8,7.68,10.6,1,14.78,11.8,25.56,26.48,26.45,3.83.23,9.44,4.18,10.72,7.7,5.65,15.52,16.18,21.66,33.57,19.2,3.62-.52,9.34,1.68,11.43,4.56q15.15,20.87,37,10.14c3.18-1.56,9.32-1.09,12,1.06,14.77,11.72,25,11.76,39.2.17,2.73-2.24,8.9-3,12.11-1.47,15.47,7.23,27.64,4.14,37.3-9.53,2.07-2.93,7.55-5.47,11-5,18.58,2.39,25.49-1.69,33.73-20.28,1.37-3.07,5.65-6.37,8.95-6.81,19.17-2.56,25.79-9.09,28.27-27.47.47-3.5,4.38-8.17,7.75-9.39,15.5-5.59,22-17.06,18.82-33.26-.69-3.5,1.53-9.37,4.38-11.47,15-11,17.36-19.72,10.11-38-1.25-3.15-.67-8.46,1.28-11.2,11.53-16.23,11.51-23-.09-39.83-1.9-2.75-2.34-8-1.06-11.19,7.27-18,5.07-25.86-10.6-38-2.64-2-4.92-7-4.46-10.19,2.78-19.29-1.85-27.52-18.8-34-3.36-1.28-7.09-6.22-7.5-9.83-2-17.51-10.42-26.13-26.84-27.38-3.66-.28-8.84-3.69-10.24-7-7.62-17.82-16-22.75-33.62-19.83-3.45.57-9.05-2-11.16-4.94-10.22-14.17-21.79-17.24-37-10.19-3.42,1.58-10.15.32-13.12-2.24-10.92-9.42-26-9.32-37.47.24-3,2.5-9.76,3.53-13.23,1.89-14.84-7-26.78-3.69-36.7,10.47-2.06,2.94-7.8,5.42-11.32,4.86C157,77,147.8,82.45,140.9,99.58,139.37,103.38,133.62,105.47,132.78,106.1Z"/><path class="cls-1" d="M132.78,106.1c.84-.63,6.59-2.72,8.12-6.52C147.8,82.45,157,77,174.83,79.86c3.52.56,9.26-1.92,11.32-4.86,9.92-14.16,21.86-17.48,36.7-10.47,3.47,1.64,10.23.61,13.23-1.89,11.48-9.56,26.55-9.66,37.47-.24,3,2.56,9.7,3.82,13.12,2.24,15.24-7,26.81-4,37,10.19,2.11,2.93,7.71,5.51,11.16,4.94,17.65-2.92,26,2,33.62,19.83,1.4,3.29,6.58,6.7,10.24,7,16.42,1.25,24.86,9.87,26.84,27.38.41,3.61,4.14,8.55,7.5,9.83,16.95,6.47,21.58,14.7,18.8,34-.46,3.19,1.82,8.15,4.46,10.19,15.67,12.14,17.87,20,10.6,38-1.28,3.15-.84,8.44,1.06,11.19,11.6,16.79,11.62,23.6.09,39.83-1.95,2.74-2.53,8.05-1.28,11.2,7.25,18.32,4.85,27-10.11,38-2.85,2.1-5.07,8-4.38,11.47,3.15,16.2-3.32,27.67-18.82,33.26-3.37,1.22-7.28,5.89-7.75,9.39-2.48,18.38-9.1,24.91-28.27,27.47-3.3.44-7.58,3.74-8.95,6.81-8.24,18.59-15.15,22.67-33.73,20.28-3.5-.45-9,2.09-11,5-9.66,13.67-21.83,16.76-37.3,9.53-3.21-1.5-9.38-.77-12.11,1.47-14.17,11.59-24.43,11.55-39.2-.17-2.71-2.15-8.85-2.62-12-1.06q-21.85,10.74-37-10.14c-2.09-2.88-7.81-5.08-11.43-4.56-17.39,2.46-27.92-3.68-33.57-19.2-1.28-3.52-6.89-7.47-10.72-7.7-14.68-.89-25.49-11.67-26.48-26.45-.26-3.8-4.2-9.37-7.68-10.6-15.08-5.33-21.57-16.7-18.9-33.66.56-3.55-1.73-9.31-4.62-11.35-14.09-9.94-17.25-21.64-10.26-37,1.56-3.44.35-10.14-2.19-13.09-10.23-11.88-10.19-25.34.36-37.59,2.41-2.8,3.88-8.78,2.58-12-7.47-18.59-5.45-26.46,9.84-38.13,2.78-2.12,4.78-7.89,4.14-11.44-2.85-15.74,4-27.72,18-33,4-1.49,7.94-8.25,8.35-12.91C104.47,120.14,117.57,105.53,132.78,106.1ZM298.89,431.24l4.82-1.4c-10.86-44.95-21.72-89.91-31.82-131.75,22,36.14,45.63,75.07,69.29,114l4.53-2.59L281.62,292l97.21,92.89,3.67-3.67-94.83-99.57c13,6.69,24.46,15.62,36.82,23,12.62,7.54,26.12,13.62,39.29,20.24,12.5,6.29,25.07,12.46,37.62,18.68l2.13-4.16L294.42,273.7l129.15,31.69,1.41-5.32L296.12,262.25l.08-2.42h134c0-2.2-.07-4.41-.1-6.61H292.51L421.88,215.4l-1.44-5.51L295,240.58l111.54-67.64-2.8-4.93L289.18,230.84l88-91.67-4.29-4.28L281,223.19l60.38-109.52-5.58-3.13L271.57,217.38,301.69,93.57,296,92.09c-12.09,41.57-24.17,83.14-37.43,128.75V74.26l-6.8,0V216.67l-1.93-.55q-19-64.91-38-129.81l-5.17,1.39c10.75,44,21.5,88,31.71,129.76l-66.2-109.62-5.22,3c20.94,38,41.89,76,61.75,112.08l-97.84-93.39-3.62,3.73c31.6,33.1,63.19,66.21,93,97.45L110.16,170.12l-2.34,4.19c18.18,12,36,24.47,54.62,35.72C180.33,220.85,199,230.38,220,241.92L90.1,210.1l-1.48,5.69,125.3,36.32.05,1.5H77.61q0,3.28,0,6.57h136c-.18.71-.35,1.42-.53,2.14L85.51,300c.48,1.76,1,3.53,1.45,5.3l127.63-31.44L101.7,342.59q1.33,2.37,2.68,4.72l115.84-63.38-86.35,90.16,4.52,4.38,90.37-87.3-62,113.17,5.11,2.86,66.44-109.94c-10.22,41.89-21,86.13-31.82,130.38l5.17,1.38,38.25-130.8c.75,15.46-1.36,30.75-1.47,46-.12,16.25,1.54,32.53,2.63,48.78,1,15,2.28,29.91,3.43,44.87l4.3-.16v-143C272.81,342.55,285.85,386.89,298.89,431.24Z"/><path class="cls-2" d="M298.89,431.24c-13-44.35-26.08-88.69-40.12-136.46v143l-4.3.16c-1.15-15-2.42-29.91-3.43-44.87-1.09-16.25-2.75-32.53-2.63-48.78.11-15.3,2.22-30.59,1.47-46L211.63,429l-5.17-1.38c10.8-44.25,21.6-88.49,31.82-130.38L171.84,407.2l-5.11-2.86,62-113.17-90.37,87.3-4.52-4.38,86.35-90.16L104.38,347.31Q103,345,101.7,342.59l112.89-68.75L87,305.28c-.48-1.77-1-3.54-1.45-5.3L213,262.32c.18-.72.35-1.43.53-2.14h-136q0-3.29,0-6.57H214l-.05-1.5L88.62,215.79l1.48-5.69L220,241.92c-21-11.54-39.64-21.07-57.53-31.89-18.6-11.25-36.44-23.76-54.62-35.72l2.34-4.19,110.07,60.61c-29.81-31.24-61.4-64.35-93-97.45l3.62-3.73,97.84,93.39c-19.86-36-40.81-74.06-61.75-112.08l5.22-3,66.2,109.62c-10.21-41.76-21-85.76-31.71-129.76l5.17-1.39q19,64.91,38,129.81l1.93.55V74.24l6.8,0V220.84c13.26-45.61,25.34-87.18,37.43-128.75l5.68,1.48L271.57,217.38l64.18-106.84,5.58,3.13L281,223.19l91.92-88.3,4.29,4.28-88,91.67L403.69,168l2.8,4.93L295,240.58l125.49-30.69,1.44,5.51L292.51,253.22H430.06c0,2.2.06,4.41.1,6.61h-134l-.08,2.42L425,300.07l-1.41,5.32L294.42,273.7l109.11,65.75-2.13,4.16c-12.55-6.22-25.12-12.39-37.62-18.68-13.17-6.62-26.67-12.7-39.29-20.24-12.36-7.38-23.8-16.31-36.82-23l94.83,99.57-3.67,3.67L281.62,292l64.09,117.45-4.53,2.59c-23.66-38.92-47.33-77.85-69.29-114,10.1,41.84,21,86.8,31.82,131.75Z"/></svg>