<svg id="Layer_1" data-name="Layer 1" xmlns="http://www.w3.org/2000/svg" xmlns:xlink="http://www.w3.org/1999/xlink" viewBox="0 0 511.88 513.66"><defs><style>.cls-1{fill:none;}.cls-2{fill:#fae5c0;}.cls-3{fill:#8a3f39;}.cls-4{clip-path:url(#clip-path);}</style><clipPath id="clip-path"><circle class="cls-1" cx="880.08" cy="256.93" r="255.84"/></clipPath></defs><ellipse class="cls-2" cx="255.94" cy="256.83" rx="255.94" ry="256.83"/><path class="cls-3" d="M264.22,97.63h99.12c6.91,0,13.81,0,20.71,0,6.65,0,10.43,3.2,10.39,8.68,0,5.32-3.68,8.41-10.12,8.62-.67,0-1.33.1-2.57.19C397.81,167.18,413.8,219,429.84,271l2.38.24c5.53.57,8.48,3.83,8.54,9.4.31,34.22-27.13,65.48-61,69.52-38.16,4.55-71.35-19.05-79.33-56.45a60.51,60.51,0,0,1-1.24-9.66c-.44-9.5,1.48-11.78,10.9-13.22q24-77.58,48.06-155.69H264.56v17.53a36.13,36.13,0,0,1,18.14,12A34.53,34.53,0,0,1,268,198.57c-3.16,1.22-3.92,2.65-3.91,5.79q.14,87.09,0,174.18c0,3.39.7,4.69,4.42,5.39,31.51,5.93,54.36,31.19,57.58,63.2,1.31,13-.72,15.24-14,15.24H195.75c-8.08-.1-11.5-3.55-11-11.58,1.54-25.38,13.18-44.8,34.76-58.23,8.28-5.15,17.43-7.95,27.43-9.5v-4.5q0-87.09.06-174.18c0-3.09-.6-4.64-3.87-5.81-12.91-4.62-22-17.58-22.19-30.77-.19-15.23,7.85-27.9,21.29-33.49,1.49-.62,3-1.17,4.63-1.79V115.21H154.11c.36,1.51.61,3,1.06,4.48q22.76,73.74,45.52,147.47c.73,2.36,1.21,4.21,4.65,4.31,4.64.13,7.36,4,7.45,9,.57,30.35-21,58.75-51.39,67.57-44.73,13-91.05-21.67-90.26-67.58.08-5.2,2.89-8.88,7.85-9.1,3-.13,3.49-1.69,4.14-3.82q19.61-63.66,39.26-127.31c2.54-8.25,5.07-16.51,7.79-25.33-2,0-3.39.06-4.82,0-5.2-.26-8.73-3.88-8.67-8.85.06-4.73,3.54-8.28,8.62-8.38,7.17-.15,14.35,0,21.52-.06q48.22,0,96.46,0c1.06,0,2.12-.09,3.7-.16v-11c0-7.73-.05-15.46,0-23.2,0-5.21,3.61-9,8.42-9.11s8.65,3.6,8.73,8.82c.15,9.9.06,19.81.07,29.71ZM183.76,271.07l-41.34-133.9-.95.16L100.19,271.07ZM328.18,271h83.49c-13.84-44.81-27.57-89.29-41.3-133.77l-.93.1C355.72,181.76,342,226.2,328.18,271ZM89.37,288.64c3.84,25.81,28,45.88,53.38,44.77,26.71-1.16,50.14-21.39,51.62-44.77Zm228.13,0c1.92,24.14,27.27,45.5,52.91,44.78,26.51-.75,51.23-22,51.84-44.78ZM203.16,444.5H307.91c-1.75-18.56-20.06-44.2-51.92-44.45C223.8,399.81,205.17,425.46,203.16,444.5Zm69.76-278.12a17.38,17.38,0,0,0-34.75-.13,17.38,17.38,0,0,0,34.75.13Z"/><path class="cls-2" d="M183.76,271.07H100.19l41.28-133.74.95-.16Z"/><path class="cls-2" d="M328.18,271c13.83-44.78,27.54-89.22,41.26-133.67l.93-.1c13.73,44.48,27.46,89,41.3,133.77Z"/><path class="cls-2" d="M89.37,288.64h105c-1.48,23.38-24.91,43.61-51.62,44.77C117.38,334.52,93.21,314.45,89.37,288.64Z"/><path class="cls-2" d="M317.5,288.66H422.25c-.61,22.74-25.33,44-51.84,44.78C344.77,334.16,319.42,312.8,317.5,288.66Z"/><path class="cls-2" d="M203.16,444.5c2-19,20.64-44.69,52.83-44.45,31.86.25,50.17,25.89,51.92,44.45Z"/><path class="cls-2" d="M272.92,166.38A17.38,17.38,0,1,1,255.64,149,17.47,17.47,0,0,1,272.92,166.38Z"/><g class="cls-4"><path class="cls-3" d="M1392.08,206.09v1a42.1,42.1,0,0,0-.69,5.32q-.06,44.49,0,89c0,6.51,0,6.52-6.49,6.52H937.52c-6.67,0-6.67,0-6.67,6.76q0,96,0,191.94c0,2.16.14,4.32.22,6.48h-102V307.91h-455c-2,0-4,.12-6,.18v-102l118.46,0q168.18,0,336.37.09c4.8,0,6.27-1.29,6.17-6.16-.31-14.32-.12-28.65-.11-43q.06-78,.11-155.93h102c-.08,2.16-.22,4.32-.22,6.48q0,95.46,0,190.91c0,7.56,0,7.58,7.43,7.58Z"/><path class="cls-3" d="M794.08,1.09c.07,3.16.2,6.32.2,9.48q0,73.46,0,146.92v8.92c-5.71-2.79-10.73-5.18-15.71-7.67Q624.8,81.82,471,4.87c-2.35-1.18-4.63-2.52-6.94-3.78Z"/><path class="cls-3" d="M464.08,513.09c16.89-8.59,33.73-17.26,50.67-25.74q130.82-65.5,261.67-130.91c5.62-2.81,11.29-5.54,17.43-8.55a36.74,36.74,0,0,1,.41,3.76q0,79.47,0,159c0,.83-.13,1.66-.2,2.49Z"/><path class="cls-3" d="M368.08,49.09q35.55,17.64,71.09,35.29,84,41.93,167.94,83.93c1.44.72,2.83,1.55,5.54,3-3,.15-4.59.29-6.18.29l-233.45,0c-1.65,0-3.29.28-4.94.43Z"/><path class="cls-3" d="M368.08,342.09c2.16.1,4.31.29,6.47.29H612.37a27.09,27.09,0,0,1-3.14,2.31q-119.85,60-239.73,119.92a10.74,10.74,0,0,1-1.42.47Z"/><path class="cls-3" d="M369.08,513.09c19.15-9.7,38.27-19.46,57.46-29.09q138-69.18,276-138.18a32.65,32.65,0,0,1,13.26-3.2c14.16-.4,28.33-.15,42.49-.14a9.43,9.43,0,0,1,4.73,1.07c-1.63.87-3.24,1.79-4.89,2.61L556.67,446.88q-64.11,32-128.2,64.13c-1.18.59-2.26,1.38-3.39,2.08Z"/><path class="cls-3" d="M369.08,1.09c7.74,4.1,15.4,8.37,23.23,12.29Q546.48,90.63,700.7,167.81a17.61,17.61,0,0,1,5.56,4h-5.14c-11.82,0-23.67-.45-35.47.14-9.15.45-17.06-2-25.15-6Q506.68,98.65,372.67,31.81a43.62,43.62,0,0,0-4.59-1.72c0-9,0-18,.05-27C368.13,2.39,368.75,1.74,369.08,1.09Z"/></g></svg>