<svg id="Layer_1" data-name="Layer 1" xmlns="http://www.w3.org/2000/svg" xmlns:xlink="http://www.w3.org/1999/xlink" viewBox="0 0 511.68 513.46"><defs><style>.cls-1{fill:none;}.cls-2{fill:#fae5c0;}.cls-3{clip-path:url(#clip-path);}.cls-4{fill:#8a3f39;}</style><clipPath id="clip-path"><circle class="cls-1" cx="255.84" cy="256.73" r="255.84"/></clipPath></defs><ellipse class="cls-2" cx="255.84" cy="256.73" rx="255.84" ry="256.73"/><g class="cls-3"><path class="cls-4" d="M767.84,205.89v1a42.1,42.1,0,0,0-.69,5.32q-.06,44.49,0,89c0,6.51,0,6.52-6.49,6.52H313.28c-6.67,0-6.67,0-6.67,6.76q0,96,0,191.94c0,2.16.14,4.32.22,6.48h-102V307.71h-455c-2,0-4,.12-6,.18v-102l118.46,0q168.18,0,336.37.09c4.8,0,6.27-1.3,6.17-6.16-.31-14.32-.12-28.65-.11-43q.06-78,.11-155.93h102c-.08,2.16-.22,4.32-.22,6.48q0,95.45,0,190.91c0,7.56,0,7.58,7.43,7.58Z"/><path class="cls-4" d="M340.84,512.89q.06-80,.11-159.9v-5.64c8.29,4.12,15.84,7.86,23.38,11.63L670.58,512.09a14,14,0,0,1,1.26.8Z"/><path class="cls-4" d="M670.84.89c-10.15,5.27-20.24,10.67-30.47,15.79q-144.89,72.54-289.81,145c-2.93,1.47-5.92,2.84-9.72,4.65V.89Z"/><path class="cls-4" d="M169.84.89c.07,3.16.21,6.32.21,9.48q0,73.46,0,146.91v8.93c-5.71-2.79-10.73-5.19-15.71-7.67Q.56,81.62-153.21,4.67c-2.36-1.18-4.63-2.52-6.95-3.78Z"/><path class="cls-4" d="M-160.16,512.89c16.89-8.59,33.74-17.26,50.67-25.74q130.82-65.5,261.67-130.91c5.62-2.82,11.29-5.54,17.43-8.55a36.74,36.74,0,0,1,.41,3.76q0,79.47,0,159c0,.83-.13,1.66-.2,2.49Z"/><path class="cls-4" d="M766.84.89c-22,11.09-43.94,22.23-66,33.25Q567.37,101,433.87,167.81a32.09,32.09,0,0,1-15.28,3.59c-15-.2-29.92-.07-45.3-1.07,1.42-.82,2.81-1.71,4.28-2.44Q482.92,115.08,588.26,62.3,647.63,32.56,707,2.84A24.53,24.53,0,0,0,709.84.89Z"/><path class="cls-4" d="M-255.16,512.89c19.16-9.7,38.27-19.46,57.46-29.09q138-69.18,276-138.18a32.65,32.65,0,0,1,13.26-3.2c14.16-.4,28.33-.15,42.5-.14a9.42,9.42,0,0,1,4.72,1.07c-1.63.87-3.23,1.79-4.89,2.61Q33.17,396.33-67.57,446.67q-64.11,32.06-128.2,64.14c-1.18.59-2.26,1.38-3.39,2.08Z"/><path class="cls-4" d="M-255.16.89c7.74,4.1,15.4,8.37,23.23,12.29Q-77.76,90.43,76.46,167.61a17.5,17.5,0,0,1,5.56,4H76.88c-11.82,0-23.67-.45-35.47.14-9.15.45-17.06-1.95-25.15-6q-133.8-67.26-267.83-134.1a42.8,42.8,0,0,0-4.59-1.72c0-9,0-18,.05-27C-256.11,2.18-255.49,1.54-255.16.89Z"/><path class="cls-4" d="M428.92,342.19c17.44,0,34.89-.08,52.34.1,2,0,4.08,1.26,6,2.21q76.61,38.28,153.19,76.63,61,30.5,122,60.9c3.58,1.78,4.71,3.9,4.57,7.69-.27,7.24-.08,14.5-.08,22.85L428.64,343.19Z"/></g></svg>