<svg id="Layer_1" data-name="Layer 1" xmlns="http://www.w3.org/2000/svg" viewBox="0 0 509.92 511.68"><defs><style>.cls-1{fill:#fae5c0;}.cls-2{fill:#8a3f39;}</style></defs><ellipse class="cls-1" cx="254.96" cy="255.84" rx="251.03" ry="251.89"/><path class="cls-2" d="M312.72,502C319,487.51,329,478.35,343,470.19c12.19-7.07,23.15-16.28,34.65-24.54a3.45,3.45,0,0,0,.51-.42c25.4-29.15,56.45-53.89,71.18-91.35a148.31,148.31,0,0,0,6.27-18.13c2-8-.2-12.49-8.07-14.89-6.89-2.1-14.26-2.71-21.45-3.73-3.27-.47-6.64-.16-9.93-.51-8.87-.93-11-2.45-11.95-11.17-.91-8.39-5.67-12.13-13-14.81-13.85-5.07-27.71-10.24-41.09-16.39-14.39-6.62-27.61-7-40.3,3.39-2.23,1.82-4.82,3.19-7,5.05-10.93,9.26-23,7.66-35.05,3.39a16.91,16.91,0,0,1-11.59-14.17c-2.62-17.4-4.57-19.74-20.73-25,1-4.29,2.41-8.55,2.79-12.9.48-5.33-2.89-7.38-7.51-4.73s-8.76,6-13.36,8.66c-10,5.73-17,3.38-22.07-7.07-6.21-12.82-3.2-24.4,8.48-32.6,18.27-12.83,39-11.15,54.81,4.42a16.65,16.65,0,0,0,3.46,3.07c1,.55,2.81.88,3.57.34s1.12-2.42.84-3.49c-1.09-4.06-2.39-8.06-3.84-12-1.82-4.94-.72-9.11,2.82-12.81a39.18,39.18,0,0,1,4.16-4.28c7-5.38,10.1-11.73,9.23-21.12-1.09-11.76,3.2-16.79,13-21.87,2.3-3.54,4.44-7.2,7-10.53a4.46,4.46,0,0,1,4.08-1.17c7.62,3.42,10.36-2.85,15.69-7.11-3.25-2-5.53-3.41-7.89-4.74-5.52-3.11-6.05-5.93-1.25-10.1,3.63-3.16,7.77-5.7,13.18-9.59-10.85-7.4-21.12-14.43-31.43-21.39a3.52,3.52,0,0,0-2.53-.66c-8.94,2.5-16-2.93-23.82-5.39-6.33-2-8.13-.09-7.15,6.58.74,5,2,10.06,2.07,15.11.16,6.85-3.43,9-9.33,5.58-8.78-5.11-17.26-10.74-25.83-16.23-3.33-2.14-3.06-4.51-.07-6.81.7-.54,1.4-1.08,2.13-1.58,6.69-4.59,16.1-6.68,15.08-18.19a7.93,7.93,0,0,0-2.65-.29c-9.49,1.23-17.24-2.1-24.19-8.42s-15-7.35-24.65-4.17l4.41,8c-3.07-.42-5.38-.41-7.48-1.09a154.39,154.39,0,0,1-15.57-5.62c-12-5.34-23-4.39-33.69,3.53-9.07,6.7-18.82,12.48-28,19-4.26,3-8,6.78-12,10.2l1,1.52c4.4-2,8.75-4.16,13.2-6,17.32-7.38,20.86-5,20.63,13.46-.1,7.7,0,15.41,0,23.46-.84.85-3.14,2.15-3.84,4-2.68,7.22-4.24,14.9-7.33,21.91-6.73,15.24-6.42,29.93,1,44.79,4.75,9.45,8.74,18.95,9.56,30.06.44,6,6.38,11.56,9.83,17.32l1.78-.86c-2.57-8.92-5.15-17.83-7.65-26.47,6.5,9.74,13.08,19.28,19.26,29.07a22.68,22.68,0,0,1,3.64,9.77c.69,8.55,4.47,15.57,12,18.66,20,8.22,40.39,15.27,60.49,23.16,3.19,1.25,6.77,3.87,8.23,6.82,5.21,10.53,15.24,14.36,24.6,19.17a7.43,7.43,0,0,0,5.65-.1c6.12-2.75,12.38-2.53,15.44,3.38,2.14,4.14,1.56,10.61.14,15.42-1.52,5.12-5.71,9.39-8.31,14.26-6.35,11.85-7.72,28.45,4.94,39.36a18.25,18.25,0,0,1,4.23,5.09,73.72,73.72,0,0,0,28.1,30.06c8.5,5.09,8.66,15.08,6.07,23.5a262.46,262.46,0,0,1-13.87,35.05c-6.94,14.66-7.75,26-1.83,41.48Zm-8.85,4.23C195.14,531,52.86,470.73,10.93,329-31.83,184.47,54.91,38.84,201.1,6,342.92-25.84,485.8,72.39,507,217c21.9,149.43-82.94,265.07-193.76,287.38M269.56,6.81c-3.39,2.23-7.81,4.16-10.9,7.37C254,19,255.92,23.78,262.57,24c12.91.41,22.91,6.55,32.8,14.06,8.39,6.38,17.56,11.77,26.66,17.13,2.11,1.25,5.33.59,8,.81-.39-2.67-.35-5.49-1.25-8-1.64-4.54-5-8.74-5.55-13.32-1.14-10.05-7.06-16-15.55-18.73C295.8,12.2,283.38,10,269.56,6.81ZM235.5,34l-.75,2.87c5.31,1.14,10.59,2.41,15.93,3.41,10.65,2,12.33,5.21,6.54,15.52,6.49.82,12.46,1.94,18.45,2.13,2.09.07,5.36-1.72,6.06-3.47.77-1.91,0-5.8-1.52-7C267.18,36.83,252.69,30.59,235.5,34Zm84.13,203.86c0-.76,0-1.53-.05-2.29-3.76-.28-8.18-2-11.13-.54-6.1,2.91-10.48.57-15.4-2.15-5.19-2.87-10.39-6-16-7.83-5.31-1.76-11.08-2.37-16.69-2.78-1.86-.13-3.87,1.94-5,2.55L294,240.91C303.2,244.73,311.55,242.3,319.63,237.84ZM230.74,25.6c7.26,2.14,13.58.93,18.72-3.05,2.67-2.06,3.61-6.37,5.33-9.67-3.27-.54-6.55-1.63-9.79-1.52C236.63,11.67,235.07,19.41,230.74,25.6Z"/></svg>